<?xml version="1.0" encoding="UTF-8" standalone="no"?>
<!DOCTYPE svg PUBLIC "-//W3C//DTD SVG 1.1//EN"
 "http://www.w3.org/Graphics/SVG/1.1/DTD/svg11.dtd">
<!-- Generated by graphviz version 14.0.0 (20250921.2048)
 -->
<!-- Title: G Pages: 1 -->
<svg width="671pt" height="657pt"
 viewBox="0.00 0.00 671.00 657.00" xmlns="http://www.w3.org/2000/svg" xmlns:xlink="http://www.w3.org/1999/xlink">
<g id="graph0" class="graph" transform="scale(1 1) rotate(0) translate(4 653)">
<title>G</title><style>.edge>path:hover{stroke-width:8}</style>
<polygon fill="white" stroke="none" points="-4,4 -4,-653 666.67,-653 666.67,4 -4,4"/>
<!-- app_py -->
<g id="node1" class="node">
<title>app_py</title><style>.edge>path:hover{stroke-width:8}</style>
<ellipse fill="#9f5656" stroke="black" cx="538.48" cy="-18" rx="27.21" ry="18"/>
<text xml:space="preserve" text-anchor="middle" x="538.48" y="-14.5" font-family="Helvetica,sans-Serif" font-size="10.00" fill="#ffffff">app.py</text>
</g>
<!-- db -->
<g id="node2" class="node">
<title>db</title><style>.edge>path:hover{stroke-width:8}</style>
<ellipse fill="#98ac49" stroke="black" cx="566.48" cy="-199" rx="27" ry="18"/>
<text xml:space="preserve" text-anchor="middle" x="566.48" y="-195.5" font-family="Helvetica,sans-Serif" font-size="10.00" fill="#000000">db</text>
</g>
<!-- query_data -->
<g id="node16" class="node">
<title>query_data</title><style>.edge>path:hover{stroke-width:8}</style>
<ellipse fill="#9246a4" stroke="black" cx="538.48" cy="-127" rx="38.49" ry="18"/>
<text xml:space="preserve" text-anchor="middle" x="538.48" y="-123.5" font-family="Helvetica,sans-Serif" font-size="10.00" fill="#ffffff">query_data</text>
</g>
<!-- db&#45;&gt;query_data -->
<g id="edge1" class="edge">
<title>db&#45;&gt;query_data</title><style>.edge>path:hover{stroke-width:8}</style>
<path fill="none" stroke="black" d="M559.85,-181.41C556.75,-173.68 552.99,-164.27 549.49,-155.52"/>
<polygon fill="#98ac49" stroke="black" points="552.79,-154.35 545.83,-146.36 546.29,-156.95 552.79,-154.35"/>
</g>
<!-- flask -->
<g id="node3" class="node">
<title>flask</title><style>.edge>path:hover{stroke-width:8}</style>
<polygon fill="blue" stroke="black" points="315.48,-145 261.48,-145 261.48,-109 315.48,-109 315.48,-145"/>
<text xml:space="preserve" text-anchor="middle" x="288.48" y="-123.5" font-family="Helvetica,sans-Serif" font-size="10.00" fill="white">flask</text>
</g>
<!-- flask&#45;&gt;app_py -->
<g id="edge2" class="edge">
<title>flask&#45;&gt;app_py</title><style>.edge>path:hover{stroke-width:8}</style>
<path fill="none" stroke="black" d="M315.65,-124.83C375.26,-121.59 514.17,-110.12 538.48,-73"/>
<path fill="none" stroke="black" d="M538.48,-72C543.14,-64.88 544.44,-56 544.19,-47.55"/>
<polygon fill="blue" stroke="black" points="547.67,-47.21 543.16,-37.62 540.71,-47.93 547.67,-47.21"/>
</g>
<!-- flask_app -->
<g id="node4" class="node">
<title>flask_app</title><style>.edge>path:hover{stroke-width:8}</style>
<polygon fill="blue" stroke="black" points="226.36,-577 170.61,-577 170.61,-541 226.36,-541 226.36,-577"/>
<text xml:space="preserve" text-anchor="middle" x="198.48" y="-555.5" font-family="Helvetica,sans-Serif" font-size="10.00" fill="white">flask.app</text>
</g>
<!-- flask_app&#45;&gt;flask -->
<g id="edge3" class="edge">
<title>flask_app&#45;&gt;flask</title><style>.edge>path:hover{stroke-width:8}</style>
<path fill="none" stroke="black" d="M226.51,-546.73C245.42,-537.87 269.72,-523.86 285.48,-505 303.28,-483.7 371.91,-299.52 375.48,-272"/>
<path fill="none" stroke="black" d="M375.48,-270C379.05,-223.7 343.9,-179.6 317.2,-153.17"/>
<polygon fill="blue" stroke="black" points="319.63,-150.65 309.99,-146.27 314.8,-155.71 319.63,-150.65"/>
</g>
<!-- flask_ctx -->
<g id="node7" class="node">
<title>flask_ctx</title><style>.edge>path:hover{stroke-width:8}</style>
<polygon fill="blue" stroke="black" points="69.48,-505 15.48,-505 15.48,-469 69.48,-469 69.48,-505"/>
<text xml:space="preserve" text-anchor="middle" x="42.48" y="-483.5" font-family="Helvetica,sans-Serif" font-size="10.00" fill="white">flask.ctx</text>
</g>
<!-- flask_app&#45;&gt;flask_ctx -->
<g id="edge4" class="edge">
<title>flask_app&#45;&gt;flask_ctx</title><style>.edge>path:hover{stroke-width:8}</style>
<path fill="none" stroke="black" d="M159.99,-540.73C135.59,-529.78 104.17,-515.68 79.96,-504.82"/>
<polygon fill="blue" stroke="black" points="158.29,-543.8 168.85,-544.7 161.16,-537.42 158.29,-543.8"/>
<polygon fill="blue" stroke="black" points="81.67,-501.75 71.12,-500.85 78.81,-508.14 81.67,-501.75"/>
</g>
<!-- flask_globals -->
<g id="node8" class="node">
<title>flask_globals</title><style>.edge>path:hover{stroke-width:8}</style>
<polygon fill="blue" stroke="black" points="195.86,-433 125.11,-433 125.11,-397 195.86,-397 195.86,-433"/>
<text xml:space="preserve" text-anchor="middle" x="160.48" y="-411.5" font-family="Helvetica,sans-Serif" font-size="10.00" fill="white">flask.globals</text>
</g>
<!-- flask_app&#45;&gt;flask_globals -->
<g id="edge5" class="edge">
<title>flask_app&#45;&gt;flask_globals</title><style>.edge>path:hover{stroke-width:8}</style>
<path fill="none" stroke="black" d="M190.88,-529.6C184.22,-504.7 174.59,-468.71 167.96,-443.94"/>
<polygon fill="blue" stroke="black" points="187.46,-530.37 193.43,-539.13 194.23,-528.56 187.46,-530.37"/>
<polygon fill="blue" stroke="black" points="171.42,-443.33 165.45,-434.57 164.66,-445.14 171.42,-443.33"/>
</g>
<!-- flask_templating -->
<g id="node12" class="node">
<title>flask_templating</title><style>.edge>path:hover{stroke-width:8}</style>
<polygon fill="blue" stroke="black" points="318.98,-217 257.98,-217 257.98,-181 318.98,-181 318.98,-217"/>
<text xml:space="preserve" text-anchor="middle" x="288.48" y="-201.5" font-family="Helvetica,sans-Serif" font-size="10.00" fill="white">flask.</text>
<text xml:space="preserve" text-anchor="middle" x="288.48" y="-189.5" font-family="Helvetica,sans-Serif" font-size="10.00" fill="white">templating</text>
</g>
<!-- flask_app&#45;&gt;flask_templating -->
<g id="edge6" class="edge">
<title>flask_app&#45;&gt;flask_templating</title><style>.edge>path:hover{stroke-width:8}</style>
<path fill="none" stroke="black" d="M230.33,-533.58C259.94,-507.87 299.48,-464.46 299.48,-416 454.48,0 454.48,0 299.48,-342 299.48,-302.62 295.22,-257.29 292.01,-228.64"/>
<polygon fill="blue" stroke="black" points="228.47,-530.58 223.07,-539.69 232.97,-535.94 228.47,-530.58"/>
<polygon fill="blue" stroke="black" points="295.51,-228.49 290.88,-218.96 288.56,-229.3 295.51,-228.49"/>
</g>
<!-- flask_blueprints -->
<g id="node5" class="node">
<title>flask_blueprints</title><style>.edge>path:hover{stroke-width:8}</style>
<polygon fill="blue" stroke="black" points="162.48,-217 104.48,-217 104.48,-181 162.48,-181 162.48,-217"/>
<text xml:space="preserve" text-anchor="middle" x="133.48" y="-201.5" font-family="Helvetica,sans-Serif" font-size="10.00" fill="white">flask.</text>
<text xml:space="preserve" text-anchor="middle" x="133.48" y="-189.5" font-family="Helvetica,sans-Serif" font-size="10.00" fill="white">blueprints</text>
</g>
<!-- flask_blueprints&#45;&gt;flask -->
<g id="edge7" class="edge">
<title>flask_blueprints&#45;&gt;flask</title><style>.edge>path:hover{stroke-width:8}</style>
<path fill="none" stroke="black" d="M162.64,-184.83C187.56,-173.58 223.6,-157.3 250.73,-145.05"/>
<polygon fill="blue" stroke="black" points="251.97,-148.33 259.64,-141.03 249.09,-141.95 251.97,-148.33"/>
</g>
<!-- flask_config -->
<g id="node6" class="node">
<title>flask_config</title><style>.edge>path:hover{stroke-width:8}</style>
<ellipse fill="#53b67b" stroke="black" cx="443.48" cy="-199" rx="39.84" ry="18"/>
<text xml:space="preserve" text-anchor="middle" x="443.48" y="-195.5" font-family="Helvetica,sans-Serif" font-size="10.00" fill="#000000">flask.config</text>
</g>
<!-- flask_config&#45;&gt;flask -->
<g id="edge8" class="edge">
<title>flask_config&#45;&gt;flask</title><style>.edge>path:hover{stroke-width:8}</style>
<path fill="none" stroke="black" d="M416.13,-185.65C391.08,-174.34 353.79,-157.49 325.97,-144.93"/>
<polygon fill="#53b67b" stroke="black" points="327.76,-141.9 317.2,-140.97 324.87,-148.28 327.76,-141.9"/>
</g>
<!-- flask_ctx&#45;&gt;flask -->
<g id="edge9" class="edge">
<title>flask_ctx&#45;&gt;flask</title><style>.edge>path:hover{stroke-width:8}</style>
<path fill="none" stroke="black" d="M35.34,-468.5C17.56,-422.11 -24.18,-293.14 19.48,-200"/>
<path fill="none" stroke="black" d="M19.48,-198C37.95,-155.54 179.88,-137.4 249.8,-130.98"/>
<polygon fill="blue" stroke="black" points="250.01,-134.48 259.67,-130.12 249.4,-127.5 250.01,-134.48"/>
</g>
<!-- flask_ctx&#45;&gt;flask_globals -->
<g id="edge11" class="edge">
<title>flask_ctx&#45;&gt;flask_globals</title><style>.edge>path:hover{stroke-width:8}</style>
<path fill="none" stroke="black" d="M79.32,-464.15C92.76,-456.17 108,-447.13 121.62,-439.05"/>
<polygon fill="blue" stroke="black" points="77.97,-460.88 71.15,-468.99 81.54,-466.9 77.97,-460.88"/>
<polygon fill="blue" stroke="black" points="123.08,-442.26 129.9,-434.14 119.51,-436.23 123.08,-442.26"/>
</g>
<!-- flask_globals&#45;&gt;flask -->
<g id="edge12" class="edge">
<title>flask_globals&#45;&gt;flask</title><style>.edge>path:hover{stroke-width:8}</style>
<path fill="none" stroke="black" d="M133.48,-270C127.09,-260.64 123.71,-259.58 114.48,-253 75.11,-224.93 -1.04,-243.78 19.48,-200"/>
<path fill="none" stroke="black" d="M175.48,-342C176.65,-305.74 153.93,-301.97 133.48,-272"/>
</g>
<!-- flask_globals&#45;&gt;flask_blueprints -->
<g id="edge14" class="edge">
<title>flask_globals&#45;&gt;flask_blueprints</title><style>.edge>path:hover{stroke-width:8}</style>
<path fill="none" stroke="black" d="M133.48,-270C125.37,-258.12 124.76,-242.27 126.45,-228.65"/>
<polygon fill="blue" stroke="black" points="129.88,-229.36 128.13,-218.91 122.98,-228.17 129.88,-229.36"/>
</g>
<!-- flask_helpers -->
<g id="node9" class="node">
<title>flask_helpers</title><style>.edge>path:hover{stroke-width:8}</style>
<polygon fill="blue" stroke="black" points="233.23,-289 161.73,-289 161.73,-253 233.23,-253 233.23,-289"/>
<text xml:space="preserve" text-anchor="middle" x="197.48" y="-267.5" font-family="Helvetica,sans-Serif" font-size="10.00" fill="white">flask.helpers</text>
</g>
<!-- flask_globals&#45;&gt;flask_helpers -->
<g id="edge16" class="edge">
<title>flask_globals&#45;&gt;flask_helpers</title><style>.edge>path:hover{stroke-width:8}</style>
<path fill="none" stroke="black" d="M175.48,-342C176.13,-327.78 180.41,-312.63 185.02,-300.07"/>
<polygon fill="blue" stroke="black" points="188.27,-301.37 188.7,-290.78 181.76,-298.79 188.27,-301.37"/>
</g>
<!-- flask_json -->
<g id="node10" class="node">
<title>flask_json</title><style>.edge>path:hover{stroke-width:8}</style>
<polygon fill="blue" stroke="black" points="105.48,-289 47.48,-289 47.48,-253 105.48,-253 105.48,-289"/>
<text xml:space="preserve" text-anchor="middle" x="76.48" y="-267.5" font-family="Helvetica,sans-Serif" font-size="10.00" fill="white">flask.json</text>
</g>
<!-- flask_globals&#45;&gt;flask_json -->
<g id="edge17" class="edge">
<title>flask_globals&#45;&gt;flask_json</title><style>.edge>path:hover{stroke-width:8}</style>
<path fill="none" stroke="black" d="M165.87,-396.66C169.83,-382.62 174.65,-362.25 175.48,-344"/>
<path fill="none" stroke="black" d="M175.48,-342C176.18,-326.64 143.86,-306.02 115.96,-291.14"/>
<polygon fill="blue" stroke="black" points="117.78,-288.15 107.3,-286.64 114.56,-294.36 117.78,-288.15"/>
</g>
<!-- flask_globals&#45;&gt;flask_templating -->
<g id="edge18" class="edge">
<title>flask_globals&#45;&gt;flask_templating</title><style>.edge>path:hover{stroke-width:8}</style>
<path fill="none" stroke="black" d="M175.48,-342C177.21,-304.07 218.33,-318.3 242.48,-289 257.67,-270.57 269.79,-246.31 277.78,-227.78"/>
<polygon fill="blue" stroke="black" points="280.93,-229.32 281.52,-218.75 274.46,-226.65 280.93,-229.32"/>
</g>
<!-- flask_wrappers -->
<g id="node13" class="node">
<title>flask_wrappers</title><style>.edge>path:hover{stroke-width:8}</style>
<polygon fill="blue" stroke="black" points="137.36,-361 57.61,-361 57.61,-325 137.36,-325 137.36,-361"/>
<text xml:space="preserve" text-anchor="middle" x="97.48" y="-339.5" font-family="Helvetica,sans-Serif" font-size="10.00" fill="white">flask.wrappers</text>
</g>
<!-- flask_globals&#45;&gt;flask_wrappers -->
<g id="edge19" class="edge">
<title>flask_globals&#45;&gt;flask_wrappers</title><style>.edge>path:hover{stroke-width:8}</style>
<path fill="none" stroke="black" d="M137.4,-388.36C131.92,-382.26 126.06,-375.75 120.57,-369.65"/>
<polygon fill="blue" stroke="black" points="134.6,-390.48 143.9,-395.57 139.81,-385.8 134.6,-390.48"/>
<polygon fill="blue" stroke="black" points="123.18,-367.32 113.89,-362.23 117.98,-372 123.18,-367.32"/>
</g>
<!-- flask_helpers&#45;&gt;flask -->
<g id="edge20" class="edge">
<title>flask_helpers&#45;&gt;flask</title><style>.edge>path:hover{stroke-width:8}</style>
<path fill="none" stroke="black" d="M206.63,-252.55C216.39,-234.32 232.59,-205.08 248.48,-181 254.39,-172.05 261.28,-162.61 267.67,-154.22"/>
<polygon fill="blue" stroke="black" points="270.31,-156.52 273.65,-146.46 264.77,-152.24 270.31,-156.52"/>
</g>
<!-- flask_helpers&#45;&gt;flask_app -->
<g id="edge21" class="edge">
<title>flask_helpers&#45;&gt;flask_app</title><style>.edge>path:hover{stroke-width:8}</style>
<path fill="none" stroke="black" d="M198.76,-289.38C200.47,-313.51 203.41,-358.54 204.48,-397 205.78,-443.36 202.88,-497.21 200.67,-529.4"/>
<polygon fill="blue" stroke="black" points="197.2,-528.88 199.98,-539.1 204.18,-529.38 197.2,-528.88"/>
</g>
<!-- flask_helpers&#45;&gt;flask_blueprints -->
<g id="edge22" class="edge">
<title>flask_helpers&#45;&gt;flask_blueprints</title><style>.edge>path:hover{stroke-width:8}</style>
<path fill="none" stroke="black" d="M181.66,-252.7C174.14,-244.47 165.01,-234.48 156.72,-225.42"/>
<polygon fill="blue" stroke="black" points="159.47,-223.24 150.14,-218.22 154.31,-227.96 159.47,-223.24"/>
</g>
<!-- flask_helpers&#45;&gt;flask_templating -->
<g id="edge23" class="edge">
<title>flask_helpers&#45;&gt;flask_templating</title><style>.edge>path:hover{stroke-width:8}</style>
<path fill="none" stroke="black" d="M219.98,-252.7C231.13,-244.11 244.79,-233.61 256.97,-224.24"/>
<polygon fill="blue" stroke="black" points="258.94,-227.14 264.73,-218.27 254.67,-221.59 258.94,-227.14"/>
</g>
<!-- flask_json&#45;&gt;flask -->
<g id="edge25" class="edge">
<title>flask_json&#45;&gt;flask</title><style>.edge>path:hover{stroke-width:8}</style>
<path fill="none" stroke="black" d="M47.02,-252.71C28.61,-239.48 10.04,-220.15 19.48,-200"/>
</g>
<!-- flask_signals -->
<g id="node11" class="node">
<title>flask_signals</title><style>.edge>path:hover{stroke-width:8}</style>
<ellipse fill="#22e771" stroke="black" cx="198.48" cy="-631" rx="42.54" ry="18"/>
<text xml:space="preserve" text-anchor="middle" x="198.48" y="-627.5" font-family="Helvetica,sans-Serif" font-size="10.00" fill="#000000">flask.signals</text>
</g>
<!-- flask_signals&#45;&gt;flask -->
<g id="edge27" class="edge">
<title>flask_signals&#45;&gt;flask</title><style>.edge>path:hover{stroke-width:8}</style>
<path fill="none" stroke="black" d="M375.48,-342C372.38,-311.04 377.85,-303.02 375.48,-272"/>
</g>
<!-- flask_signals&#45;&gt;flask_app -->
<g id="edge28" class="edge">
<title>flask_signals&#45;&gt;flask_app</title><style>.edge>path:hover{stroke-width:8}</style>
<path fill="none" stroke="black" d="M198.48,-612.7C198.48,-605.41 198.48,-596.73 198.48,-588.54"/>
<polygon fill="#22e771" stroke="black" points="201.98,-588.62 198.48,-578.62 194.98,-588.62 201.98,-588.62"/>
</g>
<!-- flask_signals&#45;&gt;flask_ctx -->
<g id="edge29" class="edge">
<title>flask_signals&#45;&gt;flask_ctx</title><style>.edge>path:hover{stroke-width:8}</style>
<path fill="none" stroke="black" d="M181.19,-614.26C154.22,-589.71 101.89,-542.08 69.79,-512.85"/>
<polygon fill="#22e771" stroke="black" points="72.17,-510.29 62.42,-506.15 67.46,-515.47 72.17,-510.29"/>
</g>
<!-- flask_signals&#45;&gt;flask_helpers -->
<g id="edge30" class="edge">
<title>flask_signals&#45;&gt;flask_helpers</title><style>.edge>path:hover{stroke-width:8}</style>
<path fill="none" stroke="black" d="M375.48,-414C354.51,-353.73 289.21,-313.01 243.83,-291.14"/>
<polygon fill="#22e771" stroke="black" points="245.53,-288.08 234.98,-287.02 242.57,-294.42 245.53,-288.08"/>
<path fill="none" stroke="black" d="M224.23,-616.49C277.29,-586.58 392.45,-509.94 375.48,-416"/>
</g>
<!-- flask_signals&#45;&gt;flask_templating -->
<g id="edge31" class="edge">
<title>flask_signals&#45;&gt;flask_templating</title><style>.edge>path:hover{stroke-width:8}</style>
<path fill="none" stroke="black" d="M375.48,-414C372.51,-383.03 379.48,-374.85 375.48,-344"/>
<path fill="none" stroke="black" d="M375.48,-342C369.53,-296.15 337.07,-252.17 313.53,-225.62"/>
<polygon fill="#22e771" stroke="black" points="316.29,-223.45 306.97,-218.42 311.12,-228.16 316.29,-223.45"/>
</g>
<!-- flask_templating&#45;&gt;flask -->
<g id="edge32" class="edge">
<title>flask_templating&#45;&gt;flask</title><style>.edge>path:hover{stroke-width:8}</style>
<path fill="none" stroke="black" d="M288.48,-180.7C288.48,-173.41 288.48,-164.73 288.48,-156.54"/>
<polygon fill="blue" stroke="black" points="291.98,-156.62 288.48,-146.62 284.98,-156.62 291.98,-156.62"/>
</g>
<!-- flask_wrappers&#45;&gt;flask -->
<g id="edge34" class="edge">
<title>flask_wrappers&#45;&gt;flask</title><style>.edge>path:hover{stroke-width:8}</style>
<path fill="none" stroke="black" d="M60.29,-324.69C41.1,-312.99 21.31,-295.4 19.48,-272"/>
<path fill="none" stroke="black" d="M19.48,-270C17.06,-238.98 6.28,-228.17 19.48,-200"/>
</g>
<!-- flask_wrappers&#45;&gt;flask_app -->
<g id="edge35" class="edge">
<title>flask_wrappers&#45;&gt;flask_app</title><style>.edge>path:hover{stroke-width:8}</style>
<path fill="none" stroke="black" d="M97.48,-416C87.79,-468.51 139.47,-516.11 172.51,-540.61"/>
</g>
<!-- flask_wrappers&#45;&gt;flask_blueprints -->
<g id="edge36" class="edge">
<title>flask_wrappers&#45;&gt;flask_blueprints</title><style>.edge>path:hover{stroke-width:8}</style>
<path fill="none" stroke="black" d="M19.48,-270C16.68,-234.11 59.05,-216.02 92.93,-207.33"/>
<polygon fill="blue" stroke="black" points="93.6,-210.77 102.54,-205.08 92.01,-203.96 93.6,-210.77"/>
</g>
<!-- flask_wrappers&#45;&gt;flask_ctx -->
<g id="edge37" class="edge">
<title>flask_wrappers&#45;&gt;flask_ctx</title><style>.edge>path:hover{stroke-width:8}</style>
<path fill="none" stroke="black" d="M97.48,-416C93.58,-437.13 77.7,-455.95 64,-468.74"/>
<path fill="none" stroke="black" d="M99.22,-361.42C100.03,-372.78 100.52,-388.19 99.03,-402.94"/>
<polygon fill="blue" stroke="black" points="95.61,-402.11 97.69,-412.5 102.54,-403.08 95.61,-402.11"/>
</g>
<!-- flask_wrappers&#45;&gt;flask_helpers -->
<g id="edge39" class="edge">
<title>flask_wrappers&#45;&gt;flask_helpers</title><style>.edge>path:hover{stroke-width:8}</style>
<path fill="none" stroke="black" d="M131.51,-318.18C141.88,-310.92 153.29,-302.93 163.66,-295.68"/>
<polygon fill="blue" stroke="black" points="129.88,-315.05 123.7,-323.65 133.9,-320.78 129.88,-315.05"/>
<polygon fill="blue" stroke="black" points="165.4,-298.73 171.58,-290.13 161.38,-293 165.4,-298.73"/>
</g>
<!-- flask_wrappers&#45;&gt;flask_json -->
<g id="edge40" class="edge">
<title>flask_wrappers&#45;&gt;flask_json</title><style>.edge>path:hover{stroke-width:8}</style>
<path fill="none" stroke="black" d="M89.02,-313.81C87.65,-309.24 86.23,-304.5 84.86,-299.93"/>
<polygon fill="blue" stroke="black" points="85.63,-314.67 91.86,-323.25 92.33,-312.66 85.63,-314.67"/>
<polygon fill="blue" stroke="black" points="88.27,-299.13 82.05,-290.55 81.57,-301.14 88.27,-299.13"/>
</g>
<!-- psycopg -->
<g id="node14" class="node">
<title>psycopg</title><style>.edge>path:hover{stroke-width:8}</style>
<ellipse fill="#3370cc" stroke="black" cx="536.48" cy="-271" rx="31.72" ry="18"/>
<text xml:space="preserve" text-anchor="middle" x="536.48" y="-267.5" font-family="Helvetica,sans-Serif" font-size="10.00" fill="#ffffff">psycopg</text>
</g>
<!-- psycopg&#45;&gt;db -->
<g id="edge41" class="edge">
<title>psycopg&#45;&gt;db</title><style>.edge>path:hover{stroke-width:8}</style>
<path fill="none" stroke="black" d="M543.74,-253.05C547.06,-245.32 551.07,-235.96 554.8,-227.27"/>
<polygon fill="#3370cc" stroke="black" points="557.97,-228.75 558.69,-218.18 551.53,-225.99 557.97,-228.75"/>
</g>
<!-- psycopg&#45;&gt;query_data -->
<g id="edge42" class="edge">
<title>psycopg&#45;&gt;query_data</title><style>.edge>path:hover{stroke-width:8}</style>
<path fill="none" stroke="black" d="M533.84,-252.6C531.47,-234.65 528.62,-205.86 530.48,-181 531.08,-172.99 532.19,-164.35 533.39,-156.43"/>
<polygon fill="#3370cc" stroke="black" points="536.84,-157.04 534.99,-146.61 529.93,-155.91 536.84,-157.04"/>
</g>
<!-- psycopg_sql -->
<g id="node15" class="node">
<title>psycopg_sql</title><style>.edge>path:hover{stroke-width:8}</style>
<ellipse fill="#4778c2" stroke="black" cx="621.48" cy="-343" rx="41.19" ry="18"/>
<text xml:space="preserve" text-anchor="middle" x="621.48" y="-339.5" font-family="Helvetica,sans-Serif" font-size="10.00" fill="#ffffff">psycopg.sql</text>
</g>
<!-- psycopg_sql&#45;&gt;db -->
<g id="edge43" class="edge">
<title>psycopg_sql&#45;&gt;db</title><style>.edge>path:hover{stroke-width:8}</style>
<path fill="none" stroke="black" d="M623.22,-324.58C624.23,-310.32 624.74,-289.69 621.48,-272"/>
<path fill="none" stroke="black" d="M621.48,-270C617.94,-250.8 604.5,-233.5 591.79,-220.91"/>
<polygon fill="#4778c2" stroke="black" points="594.47,-218.62 584.77,-214.37 589.7,-223.74 594.47,-218.62"/>
</g>
<!-- psycopg_sql&#45;&gt;query_data -->
<g id="edge44" class="edge">
<title>psycopg_sql&#45;&gt;query_data</title><style>.edge>path:hover{stroke-width:8}</style>
<path fill="none" stroke="black" d="M621.48,-270C614.14,-230.22 623.44,-215.59 602.48,-181 594.64,-168.05 582.47,-156.81 570.84,-148.06"/>
<polygon fill="#4778c2" stroke="black" points="573.14,-145.4 562.96,-142.46 569.08,-151.1 573.14,-145.4"/>
</g>
<!-- query_data&#45;&gt;app_py -->
<g id="edge45" class="edge">
<title>query_data&#45;&gt;app_py</title><style>.edge>path:hover{stroke-width:8}</style>
<path fill="none" stroke="black" d="M533.96,-108.88C532.05,-97.77 531.63,-83.47 538.48,-73"/>
</g>
</g>
</svg>
